<svg xmlns="http://www.w3.org/2000/svg" width="63" height="54" viewBox="0 0 63 54">
  <g id="Grupo_1021361" data-name="Grupo 1021361" transform="translate(-854 -1352)">
    <path id="Icon_awesome-long-arrow-alt-right" data-name="Icon awesome-long-arrow-alt-right" d="M9.952,12.48H.38a.38.38,0,0,0-.38.38v1.775a.38.38,0,0,0,.38.38H9.952v1.46a.761.761,0,0,0,1.3.538l2.728-2.728a.761.761,0,0,0,0-1.076L11.25,10.482a.761.761,0,0,0-1.3.538Z" transform="translate(878.345 1383.331)" fill="#a6a1d4"/>
    <path id="Icon_awesome-long-arrow-alt-right-2" data-name="Icon awesome-long-arrow-alt-right" d="M9.952,2.222H.38A.38.38,0,0,0,0,2.6V4.378a.38.38,0,0,0,.38.38H9.952v1.46a.761.761,0,0,0,1.3.538l2.728-2.728a.761.761,0,0,0,0-1.076L11.25.224a.761.761,0,0,0-1.3.538Z" transform="translate(869.663 1375.33) rotate(90)" fill="#a6a1d4"/>
    <rect id="Rectángulo_369897" data-name="Rectángulo 369897" width="16" height="23" rx="5" transform="translate(858 1352)" fill="#362b9e"/>
    <rect id="Rectángulo_369898" data-name="Rectángulo 369898" width="24" height="16" transform="translate(854 1390)" fill="#362b9e"/>
    <rect id="Rectángulo_369899" data-name="Rectángulo 369899" width="24" height="16" rx="8" transform="translate(893 1390)" fill="#362b9e"/>
  </g>
</svg>
