<svg xmlns="http://www.w3.org/2000/svg" xmlns:xlink="http://www.w3.org/1999/xlink" width="1328" height="1282.245" viewBox="0 0 1328 1282.245">
  <defs>
    <filter id="Rectángulo_348554" x="36" y="0" width="1257" height="514" filterUnits="userSpaceOnUse">
      <feOffset dy="3" input="SourceAlpha"/>
      <feGaussianBlur stdDeviation="3" result="blur"/>
      <feFlood flood-opacity="0.161"/>
      <feComposite operator="in" in2="blur"/>
      <feComposite in="SourceGraphic"/>
    </filter>
    <filter id="Rectángulo_348560" x="36" y="0" width="1257" height="527" filterUnits="userSpaceOnUse">
      <feOffset dy="3" input="SourceAlpha"/>
      <feGaussianBlur stdDeviation="3" result="blur-2"/>
      <feFlood flood-opacity="0.161"/>
      <feComposite operator="in" in2="blur-2"/>
      <feComposite in="SourceGraphic"/>
    </filter>
    <clipPath id="clip-path">
      <rect id="Rectángulo_36954" data-name="Rectángulo 36954" width="1328" height="1026.744" fill="#d5cef8" opacity="0.3"/>
    </clipPath>
    <clipPath id="clip-path-2">
      <path id="Rectángulo_345671" data-name="Rectángulo 345671" d="M0,0H752.359a19,19,0,0,1,19,19V436.8a19,19,0,0,1-19,19H0a0,0,0,0,1,0,0V0A0,0,0,0,1,0,0Z" fill="#349ff1" opacity="0.17"/>
    </clipPath>
    <clipPath id="clip-path-3">
      <g transform="matrix(1, 0, 0, 1, 0, 0)" filter="url(#Rectángulo_348554)">
        <rect id="Rectángulo_348554-2" data-name="Rectángulo 348554" width="1239" height="496" rx="16" transform="translate(181 836)" fill="#edecf6"/>
      </g>
    </clipPath>
    <clipPath id="clip-path-4">
      <g transform="matrix(1, 0, 0, 1, 0, 0)" filter="url(#Rectángulo_348560)">
        <rect id="Rectángulo_348560-2" data-name="Rectángulo 348560" width="1239" height="509" rx="16" transform="translate(181 836)" fill="#edecf6"/>
      </g>
    </clipPath>
  </defs>
  <g id="Grupo_1021308" data-name="Grupo 1021308" transform="translate(-136 -828.756)">
    <g id="Grupo_1006346" data-name="Grupo 1006346" transform="translate(0 659.188)">
      <g id="Enmascarar_grupo_952090" data-name="Enmascarar grupo 952090" transform="translate(136 425.068)" opacity="0.35" clip-path="url(#clip-path)">
        <rect id="Rectángulo_36947" data-name="Rectángulo 36947" width="1328" height="1026.744" fill="#d5cef8"/>
        <path id="Trazado_656249" data-name="Trazado 656249" d="M1489.26,696.55,1404.4,310.985l49.81-185.919L1229.433-1.837c-3.5,4.335-6.78,8.945-10.528,12.96-28.069,30.072-54.777,62.4-84.666,89.514-59.26,53.748-120.9,68.365-182.1,44.066q-31.947-12.685-62.8-27.828c-38.062-18.745-78.507-28.027-124.12-20.253-28.549,4.864-54.524,17.611-78.291,41.153-35.573,35.238-62.067,78.847-91.305,120-15.493,21.8-31.263,43.549-48.253,63.865-34.94,41.78-74.748,63.392-121.24,63.484-50.01.1-90.406-15.1-116.446-60.892-21.73-38.211-43.8-76.3-68.358-111.85-39.746-57.541-97.11-72.316-167.1-49.108-25.055,8.306-49.688,21.395-74.515,32.3L107.65,657.785Z" transform="matrix(0.891, -0.454, 0.454, 0.891, 170.602, 616.568)" fill="none" stroke="#fff" stroke-width="1" opacity="0.81"/>
        <path id="Rectangle_652" data-name="Rectangle 652" d="M1307.087,709.01H20.913C9.363,709.01,0,697.253,0,682.75V26.26C0,11.757,9.363,0,20.913,0H1307.087C1318.637,0,1328,11.757,1328,26.26V682.75C1328,697.253,1318.637,709.01,1307.087,709.01Z" transform="translate(0 20.752)" fill="none" opacity="0.238"/>
      </g>
      <g id="Enmascarar_grupo_952091" data-name="Enmascarar grupo 952091" transform="translate(136 996.01)" opacity="0.18" clip-path="url(#clip-path-2)">
        <g id="Grupo_1006345" data-name="Grupo 1006345" transform="translate(-358.397 -0.03)">
          <path id="Trazado_680370" data-name="Trazado 680370" d="M201.911,459.363,341.59,319.684a80.187,80.187,0,0,1,113.4,113.4L391.375,496.7a35.2,35.2,0,0,0,49.786,49.786l13.83-13.83A72.364,72.364,0,1,1,557.33,635l-56.7,56.7a15.647,15.647,0,0,0,22.128,22.128l138.3-138.3a62.585,62.585,0,0,1,88.509,88.509l-37.34,37.339a13.691,13.691,0,0,0,19.361,19.363l3.1-3.1a167.728,167.728,0,0,1,237.207,0l63.947,63.945H0S214.358,471.81,201.911,459.363" transform="translate(0 -296.198)" fill="#bdafff"/>
          <g id="Grupo_1006344" data-name="Grupo 1006344" transform="translate(69.16 118.126)">
            <path id="Trazado_680371" data-name="Trazado 680371" d="M383.934,487.644a13.282,13.282,0,1,1-13.281-13.281,13.281,13.281,0,0,1,13.281,13.281" transform="translate(182.437 -288.895)" fill="#907af8"/>
            <line id="Línea_302" data-name="Línea 302" y1="220.257" x2="220.257" transform="translate(133.971)" fill="none" stroke="#fff" stroke-linecap="round" stroke-miterlimit="10" stroke-width="3"/>
            <line id="Línea_303" data-name="Línea 303" y1="197.42" x2="197.42" transform="translate(373.437 292.774)" fill="none" stroke="#fff" stroke-linecap="round" stroke-miterlimit="10" stroke-width="3"/>
            <line id="Línea_304" data-name="Línea 304" y1="197.42" x2="197.42" transform="translate(25.806 68.628)" fill="none" stroke="#fff" stroke-linecap="round" stroke-miterlimit="10" stroke-width="3"/>
            <path id="Trazado_680372" data-name="Trazado 680372" d="M255.669,484.207a34.855,34.855,0,1,1-34.854-34.854,34.854,34.854,0,0,1,34.854,34.854" transform="translate(75.215 -298.738)" fill="#fff"/>
            <path id="Trazado_680373" data-name="Trazado 680373" d="M164.312,640.354c2.411-.8,93.493-92.877,128.335-128.158a18.922,18.922,0,1,1,26.833,26.685l-28.633,28.635a9.493,9.493,0,0,0,13.424,13.425L316.2,569.007a20.743,20.743,0,0,1,29.335,29.334,8.786,8.786,0,0,0,0,12.429L379.1,644.332H161.328" transform="translate(71.329 -304.807)" fill="#907af8"/>
            <line id="Línea_305" data-name="Línea 305" y1="227.038" x2="224.451" transform="translate(666.847 161.163)" fill="none" stroke="#907af8" stroke-linecap="round" stroke-miterlimit="10" stroke-width="3"/>
            <line id="Línea_306" data-name="Línea 306" y1="246.536" x2="246.536" transform="translate(0 275.406)" fill="none" stroke="#64b2ff" stroke-linecap="round" stroke-miterlimit="10" stroke-width="3"/>
            <line id="Línea_307" data-name="Línea 307" y1="48.072" x2="48.072" transform="translate(822.706 238.96)" fill="none" stroke="#907af8" stroke-linecap="round" stroke-miterlimit="10" stroke-width="3"/>
          </g>
        </g>
      </g>
    </g>
    <g id="Enmascarar_grupo_952095" data-name="Enmascarar grupo 952095" transform="translate(0 -1.244)" clip-path="url(#clip-path-4)">
      <path id="Trazado_726352" data-name="Trazado 726352" d="M1423.428,164.032s-125.1-1.479-336.321-126.008S850.527,134.844,722.4,133.4s-161.377-96.208-300.284-70.9S248.069,193.166,82.979,145.929,50.124,296.7,50.124,296.7l1354.631,29.9Z" transform="matrix(0.995, -0.105, 0.105, 0.995, 189.581, 951.121)" fill="none" stroke="#12263f" stroke-width="3" stroke-dasharray="11" opacity="0.142"/>
      <path id="Trazado_726353" data-name="Trazado 726353" d="M2692.237,0,2482.183,600.832l57.856,275.319-414.4,229c-5.444-6.049-10.472-12.55-16.409-18.072-44.462-41.356-86.177-86.367-134.3-122.925-95.414-72.471-201.22-84.954-312.417-38.224q-58.048,24.394-114.574,52.361c-69.739,34.6-142.154,55.157-220.926,50.556-49.3-2.879-92.84-18.174-130.792-50.265-56.8-48.034-96.353-110.262-141.106-168.306-23.713-30.758-47.923-61.38-74.5-89.631-54.653-58.1-121.048-84.705-202.58-77.465-87.7,7.791-160.971,37.353-213.915,111.246-44.179,61.659-88.943,123.189-137.655,181.241C347.617,1029.63,244.654,1061.244,125.575,1037,82.945,1028.323,41.816,1012.294,0,999.623L262.7,278.36Z" transform="translate(2250.013 1220.61) rotate(157)" fill="none" stroke="#31313c" stroke-width="3" opacity="0.05"/>
      <path id="Trazado_726354" data-name="Trazado 726354" d="M1979.178,812.443l-154.42-441.7,42.532-202.4L1562.646,0c-4,4.447-7.7,9.226-12.063,13.285-32.685,30.4-63.351,63.492-98.728,90.367-70.142,53.277-147.925,62.453-229.671,28.1q-42.674-17.934-84.228-38.493c-51.267-25.434-104.5-40.549-162.412-37.165-36.245,2.116-68.251,13.36-96.151,36.952-41.758,35.312-70.833,81.059-103.732,123.729-17.433,22.611-35.231,45.123-54.768,65.891-40.178,42.712-88.988,62.27-148.926,56.948-64.475-5.727-118.337-27.46-157.258-81.781-32.478-45.328-65.386-90.562-101.2-133.238C255.548,55.518,179.855,32.278,92.315,50.1,60.976,56.479,30.741,68.263,0,77.578L193.123,607.809Z" transform="matrix(0.891, -0.454, 0.454, 0.891, -20.58, 1034.899)" fill="none" stroke="#fff" stroke-width="1" opacity="0.81"/>
    </g>
  </g>
</svg>
