<svg xmlns="http://www.w3.org/2000/svg" xmlns:xlink="http://www.w3.org/1999/xlink" width="170" height="162.428" viewBox="0 0 170 162.428">
  <defs>
    <clipPath id="clip-path">
      <rect id="Rectángulo_369892" data-name="Rectángulo 369892" width="170" height="162.428" fill="none"/>
    </clipPath>
    <clipPath id="clip-path-3">
      <rect id="Rectángulo_369873" data-name="Rectángulo 369873" width="136.02" height="78.531" fill="none"/>
    </clipPath>
    <clipPath id="clip-path-4">
      <path id="Trazado_736686" data-name="Trazado 736686" d="M1.65,166.275a1.077,1.077,0,0,1-.633-.845c0-.41.374-.871,1-1.235L63.457,128.2a5.484,5.484,0,0,1,2.652-.654,4.031,4.031,0,0,1,1.965.442L158.2,180.023a1.077,1.077,0,0,1,.632.844c0,.411-.374.871-1,1.235l-61.437,36a5.219,5.219,0,0,1-4.615.212h0Zm61.3-38.954L1.509,163.315A2.6,2.6,0,0,0,0,165.43a2.015,2.015,0,0,0,1.142,1.726L91.269,219.19h0a5.041,5.041,0,0,0,2.485.583,6.443,6.443,0,0,0,3.152-.8l61.437-35.995a2.6,2.6,0,0,0,1.51-2.114,2.014,2.014,0,0,0-1.142-1.725L68.583,127.106a5.049,5.049,0,0,0-2.486-.582,6.446,6.446,0,0,0-3.152.8" transform="translate(0 -126.524)" fill="none"/>
    </clipPath>
    <linearGradient id="linear-gradient" y1="1" x2="0.003" y2="1" gradientUnits="objectBoundingBox">
      <stop offset="0" stop-color="#e39a65"/>
      <stop offset="1" stop-color="#e95f8d"/>
    </linearGradient>
    <clipPath id="clip-path-5">
      <path id="Trazado_736687" data-name="Trazado 736687" d="M145.184.075h0l-.007,0-1.456.507.513.121a2.534,2.534,0,0,0-.481.9L125.964,59.361a3.484,3.484,0,0,0,1.442,3.886l78.659,45.414a2.316,2.316,0,0,0,.579.236l-.2.425,1.392-.489h0a2.222,2.222,0,0,0,1.266-1.471L226.89,49.6a3.19,3.19,0,0,0,.138-.922v-.049a3.44,3.44,0,0,0-1.581-2.915L146.79.305A2.162,2.162,0,0,0,145.709,0a1.874,1.874,0,0,0-.525.075" transform="translate(-125.826)" fill="none"/>
    </clipPath>
    <radialGradient id="radial-gradient" cx="0.195" cy="-0.023" r="1.117" gradientTransform="matrix(1.077, 0, 0, -1, 0.052, 2.972)" gradientUnits="objectBoundingBox">
      <stop offset="0" stop-color="#e39a65"/>
      <stop offset="0.474" stop-color="#a92ffb"/>
      <stop offset="0.592" stop-color="#891cfa"/>
      <stop offset="0.742" stop-color="#6507fa"/>
      <stop offset="0.802" stop-color="#0d0c6f"/>
      <stop offset="1" stop-color="#0d0c6f"/>
    </radialGradient>
    <clipPath id="clip-path-6">
      <path id="Trazado_736688" data-name="Trazado 736688" d="M74.228,120.514,24.03,149.5l-1.674-.639.47,2.348h0a1.4,1.4,0,0,0,.753.94l78.412,45.272a4.957,4.957,0,0,0,4.459-.185l50.325-29.056a2.012,2.012,0,0,0,1.067-1.243l0,0,.48-2.285-1.975.5.028.033L78.687,120.33a3.95,3.95,0,0,0-1.937-.446,5.182,5.182,0,0,0-2.522.63" transform="translate(-22.356 -119.884)" fill="none"/>
    </clipPath>
    <radialGradient id="radial-gradient-2" cx="0.01" cy="0.383" r="1.707" gradientTransform="matrix(0.575, 0, 0, -1, -0.038, 2.478)" gradientUnits="objectBoundingBox">
      <stop offset="0" stop-color="#e39a65"/>
      <stop offset="0.474" stop-color="#a92ffb"/>
      <stop offset="0.566" stop-color="#891cfa"/>
      <stop offset="0.683" stop-color="#6507fa"/>
      <stop offset="0.738" stop-color="#0d0c6f"/>
      <stop offset="1" stop-color="#0d0c6f"/>
    </radialGradient>
    <clipPath id="clip-path-7">
      <path id="Trazado_736689" data-name="Trazado 736689" d="M74.092,115.733,23.409,145c-1.329.767-1.474,1.928-.323,2.593l78.969,45.593a4.992,4.992,0,0,0,4.491-.187l50.683-29.262c1.329-.767,1.474-1.928.323-2.592l-78.97-45.593a3.976,3.976,0,0,0-1.951-.449,5.214,5.214,0,0,0-2.54.635" transform="translate(-22.309 -115.098)" fill="none"/>
    </clipPath>
    <radialGradient id="radial-gradient-3" cx="0.103" cy="0.073" r="1.52" gradientTransform="matrix(0.576, 0, 0, -1, -0.037, 2.527)" gradientUnits="objectBoundingBox">
      <stop offset="0" stop-color="#e39a65"/>
      <stop offset="0.474" stop-color="#a92ffb"/>
      <stop offset="0.585" stop-color="#891cfa"/>
      <stop offset="0.726" stop-color="#6507fa"/>
      <stop offset="1" stop-color="#3919bb"/>
    </radialGradient>
    <clipPath id="clip-path-9">
      <rect id="Rectángulo_369879" data-name="Rectángulo 369879" width="78.878" height="47.05" fill="none"/>
    </clipPath>
    <clipPath id="clip-path-11">
      <path id="Trazado_736839" data-name="Trazado 736839" d="M141.3,2.463,123.513,60.219a3.484,3.484,0,0,0,1.442,3.886l78.659,45.413a2.02,2.02,0,0,0,3.037-1.3l17.788-57.755A3.485,3.485,0,0,0,223,46.577L144.338,1.164a2.151,2.151,0,0,0-1.081-.306A2.083,2.083,0,0,0,141.3,2.463" transform="translate(-123.375 -0.858)" fill="none"/>
    </clipPath>
    <radialGradient id="radial-gradient-4" cx="-0.112" cy="0.205" r="1.116" gradientTransform="matrix(1.074, 0, 0, -1, 0.049, 2.962)" xlink:href="#radial-gradient-3"/>
    <clipPath id="clip-path-12">
      <path id="Trazado_736840" data-name="Trazado 736840" d="M143.6,6.205,126.6,61.419a3.335,3.335,0,0,0,1.38,3.719l76.295,44.085a1.932,1.932,0,0,0,2.906-1.244l17.007-55.214a3.333,3.333,0,0,0-1.38-3.719L146.512,4.961a2.065,2.065,0,0,0-1.035-.292A1.994,1.994,0,0,0,143.6,6.205" transform="translate(-126.466 -4.669)" fill="none"/>
    </clipPath>
    <linearGradient id="linear-gradient-2" x1="-0.7" y1="1.519" x2="-0.694" y2="1.519" gradientUnits="objectBoundingBox">
      <stop offset="0" stop-color="#3919bb"/>
      <stop offset="1" stop-color="#6507fa"/>
    </linearGradient>
    <clipPath id="clip-path-14">
      <rect id="Rectángulo_369884" data-name="Rectángulo 369884" width="97.853" height="104.846" fill="none"/>
    </clipPath>
    <clipPath id="clip-path-16">
      <rect id="Rectángulo_369886" data-name="Rectángulo 369886" width="66.45" height="71.547" fill="none"/>
    </clipPath>
    <clipPath id="clip-path-17">
      <path id="Trazado_736844" data-name="Trazado 736844" d="M163.924,37.272,152.244,75.194a2.287,2.287,0,0,0,.946,2.552l51.647,29.818a1.326,1.326,0,0,0,1.994-.854l11.68-37.922a2.288,2.288,0,0,0-.947-2.552L165.918,36.418a1.417,1.417,0,0,0-.71-.2,1.368,1.368,0,0,0-1.284,1.054" transform="translate(-152.153 -36.218)" fill="none"/>
    </clipPath>
    <radialGradient id="radial-gradient-5" cx="-1.075" cy="-0.32" r="2.648" gradientTransform="matrix(1.074, 0, 0, -1, 0.092, 3.972)" xlink:href="#radial-gradient-3"/>
    <clipPath id="clip-path-20">
      <rect id="Rectángulo_369890" data-name="Rectángulo 369890" width="37.685" height="22.017" fill="none"/>
    </clipPath>
  </defs>
  <g id="Grupo_1022215" data-name="Grupo 1022215" transform="translate(10748.5 12317.428)">
    <g id="Grupo_1022214" data-name="Grupo 1022214" transform="translate(-10748.5 -12321.428)">
      <g id="Grupo_1021353" data-name="Grupo 1021353" transform="translate(0 4)" clip-path="url(#clip-path)">
        <g id="Grupo_1021311" data-name="Grupo 1021311">
          <g id="Grupo_1021310" data-name="Grupo 1021310" clip-path="url(#clip-path)">
            <g id="Grupo_1021309" data-name="Grupo 1021309" transform="translate(12.198 76.114)" opacity="0.6">
              <g id="Grupo_1021308" data-name="Grupo 1021308">
                <g id="Grupo_1021307" data-name="Grupo 1021307" clip-path="url(#clip-path-3)">
                  <path id="Trazado_736685" data-name="Trazado 736685" d="M102.056,217.29,23.087,171.7c-1.151-.664-1.007-1.825.322-2.593l50.683-29.262a4.991,4.991,0,0,1,4.491-.186l78.97,45.593c1.151.665,1.007,1.826-.323,2.593L106.546,217.1a4.992,4.992,0,0,1-4.491.186" transform="translate(-22.309 -139.208)" fill="#020230"/>
                </g>
              </g>
            </g>
          </g>
        </g>
        <g id="Grupo_1021313" data-name="Grupo 1021313" transform="translate(0 69.179)">
          <g id="Grupo_1021312" data-name="Grupo 1021312" clip-path="url(#clip-path-4)">
            <rect id="Rectángulo_369875" data-name="Rectángulo 369875" width="159.852" height="93.249" transform="translate(0 0)" fill="url(#linear-gradient)"/>
          </g>
        </g>
        <g id="Grupo_1021315" data-name="Grupo 1021315" transform="translate(68.797)">
          <g id="Grupo_1021314" data-name="Grupo 1021314" clip-path="url(#clip-path-5)">
            <rect id="Rectángulo_369876" data-name="Rectángulo 369876" width="101.505" height="109.322" transform="translate(-0.302 0)" fill="url(#radial-gradient)"/>
          </g>
        </g>
        <g id="Grupo_1021317" data-name="Grupo 1021317" transform="translate(12.223 65.548)">
          <g id="Grupo_1021316" data-name="Grupo 1021316" clip-path="url(#clip-path-6)">
            <rect id="Rectángulo_369877" data-name="Rectángulo 369877" width="135.972" height="78.192" transform="translate(0 0)" fill="url(#radial-gradient-2)"/>
          </g>
        </g>
        <g id="Grupo_1021319" data-name="Grupo 1021319" transform="translate(12.198 62.931)">
          <g id="Grupo_1021318" data-name="Grupo 1021318" clip-path="url(#clip-path-7)">
            <rect id="Rectángulo_369878" data-name="Rectángulo 369878" width="136.768" height="78.747" transform="translate(-0.374 0)" fill="url(#radial-gradient-3)"/>
          </g>
        </g>
        <g id="Grupo_1021327" data-name="Grupo 1021327">
          <g id="Grupo_1021326" data-name="Grupo 1021326" clip-path="url(#clip-path)">
            <path id="Trazado_736690" data-name="Trazado 736690" d="M157.241,188.861l-50.683,29.262a4.992,4.992,0,0,1-4.491.186L23.1,172.716a1.472,1.472,0,0,1-.718-.819,1.231,1.231,0,0,0,.718,1.434l78.969,45.593a4.994,4.994,0,0,0,4.491-.186l50.683-29.262c.876-.506,1.226-1.181,1.04-1.774a2.091,2.091,0,0,1-1.04,1.159" transform="translate(-10.122 -77.91)" fill="#fff"/>
            <g id="Grupo_1021322" data-name="Grupo 1021322" transform="translate(47.832 73.548)" opacity="0.4">
              <g id="Grupo_1021321" data-name="Grupo 1021321">
                <g id="Grupo_1021320" data-name="Grupo 1021320" clip-path="url(#clip-path-9)">
                  <path id="Trazado_736691" data-name="Trazado 736691" d="M90.292,157.707l-2.666-1.539c-.214-.124-.188-.34.06-.482l3.147-1.817a.929.929,0,0,1,.835-.035l2.666,1.54c.214.124.187.34-.06.482l-3.147,1.817a.928.928,0,0,1-.835.034" transform="translate(-87.481 -143.233)" fill="#06033e"/>
                  <path id="Trazado_736692" data-name="Trazado 736692" d="M97.822,162.055l-2.666-1.539c-.214-.124-.188-.34.06-.482l3.147-1.817a.926.926,0,0,1,.835-.034l2.667,1.539c.214.124.187.34-.06.482l-3.147,1.817a.928.928,0,0,1-.835.034" transform="translate(-90.894 -145.204)" fill="#06033e"/>
                  <path id="Trazado_736693" data-name="Trazado 736693" d="M105.352,166.4l-2.666-1.539c-.214-.124-.188-.34.06-.482l3.147-1.817a.928.928,0,0,1,.835-.034l2.667,1.539c.214.124.187.34-.06.482l-3.147,1.817a.928.928,0,0,1-.835.034" transform="translate(-94.307 -147.174)" fill="#06033e"/>
                  <path id="Trazado_736694" data-name="Trazado 736694" d="M115.767,163.054l-2.666-1.539c-.214-.124-.188-.34.06-.482l2.641-1.525a.928.928,0,0,1,.835-.035l2.667,1.539c.214.124.187.34-.06.482L116.6,163.02a.928.928,0,0,1-.835.034" transform="translate(-99.028 -145.789)" fill="#06033e"/>
                  <path id="Trazado_736695" data-name="Trazado 736695" d="M123.3,167.4l-2.666-1.539c-.214-.124-.188-.34.06-.482l2.642-1.525a.928.928,0,0,1,.835-.035l2.667,1.539c.214.124.187.34-.06.482l-2.642,1.525a.928.928,0,0,1-.835.034" transform="translate(-102.44 -147.759)" fill="#06033e"/>
                  <path id="Trazado_736696" data-name="Trazado 736696" d="M130.828,171.749l-2.666-1.539c-.214-.124-.188-.34.06-.482l2.642-1.525a.928.928,0,0,1,.835-.034l2.667,1.539c.214.124.187.34-.06.482l-2.642,1.525a.928.928,0,0,1-.835.034" transform="translate(-105.854 -149.73)" fill="#06033e"/>
                  <path id="Trazado_736697" data-name="Trazado 736697" d="M138.358,176.1l-2.666-1.539c-.214-.124-.188-.34.06-.482l2.642-1.525a.928.928,0,0,1,.835-.034l2.667,1.539c.214.124.187.34-.06.482l-2.642,1.525a.928.928,0,0,1-.835.034" transform="translate(-109.267 -151.7)" fill="#06033e"/>
                  <path id="Trazado_736698" data-name="Trazado 736698" d="M145.888,180.444l-2.666-1.539c-.214-.124-.188-.34.06-.482l2.642-1.525a.928.928,0,0,1,.835-.034l2.667,1.539c.214.124.187.34-.06.482l-2.642,1.525a.928.928,0,0,1-.835.034" transform="translate(-112.679 -153.671)" fill="#06033e"/>
                  <path id="Trazado_736699" data-name="Trazado 736699" d="M153.419,184.792l-2.667-1.539c-.214-.124-.188-.34.06-.482l2.641-1.525a.928.928,0,0,1,.835-.034l2.667,1.539c.214.124.187.34-.06.482l-2.641,1.525a.929.929,0,0,1-.835.034" transform="translate(-116.092 -155.641)" fill="#06033e"/>
                  <path id="Trazado_736700" data-name="Trazado 736700" d="M160.949,189.14l-2.666-1.539c-.214-.124-.188-.34.06-.482l2.641-1.525a.928.928,0,0,1,.835-.034l2.667,1.539c.214.124.187.34-.06.482l-2.642,1.525a.928.928,0,0,1-.835.034" transform="translate(-119.506 -157.612)" fill="#06033e"/>
                  <path id="Trazado_736701" data-name="Trazado 736701" d="M168.479,193.487l-2.666-1.539c-.214-.124-.187-.34.06-.482l2.641-1.525a.928.928,0,0,1,.835-.034l2.667,1.539c.214.124.187.34-.06.482l-2.641,1.525a.929.929,0,0,1-.835.034" transform="translate(-122.919 -159.582)" fill="#06033e"/>
                  <path id="Trazado_736702" data-name="Trazado 736702" d="M176.009,197.835l-2.666-1.539c-.214-.124-.188-.34.06-.482l2.641-1.525a.928.928,0,0,1,.835-.034l2.667,1.539c.214.124.187.34-.06.482l-2.642,1.525a.928.928,0,0,1-.835.034" transform="translate(-126.331 -161.553)" fill="#06033e"/>
                  <path id="Trazado_736703" data-name="Trazado 736703" d="M183.54,202.182l-2.666-1.539c-.214-.124-.188-.34.06-.482l2.642-1.525a.928.928,0,0,1,.835-.034l2.667,1.539c.214.124.187.34-.06.482l-2.642,1.525a.928.928,0,0,1-.835.034" transform="translate(-129.745 -163.523)" fill="#06033e"/>
                  <path id="Trazado_736704" data-name="Trazado 736704" d="M126.863,161l-2.667-1.539c-.214-.124-.186-.34.06-.482l2.641-1.525a.929.929,0,0,1,.835-.034l2.666,1.539c.214.124.187.34-.06.482l-2.641,1.525a.929.929,0,0,1-.835.034" transform="translate(-104.056 -144.856)" fill="#06033e"/>
                  <path id="Trazado_736705" data-name="Trazado 736705" d="M119.22,156.583l-2.666-1.539c-.214-.124-.188-.34.06-.482l2.641-1.525a.928.928,0,0,1,.835-.034l2.667,1.539c.214.124.187.34-.06.482l-2.642,1.525a.928.928,0,0,1-.835.034" transform="translate(-100.593 -142.856)" fill="#06033e"/>
                  <path id="Trazado_736706" data-name="Trazado 736706" d="M109.015,150.691l-5.742-3.315c-.214-.124-.187-.34.06-.482l2.641-1.525a.929.929,0,0,1,.835-.034l5.742,3.315c.214.124.187.34-.06.482l-2.642,1.525a.928.928,0,0,1-.835.034" transform="translate(-94.573 -139.381)" fill="#06033e"/>
                  <path id="Trazado_736707" data-name="Trazado 736707" d="M115.263,145.834l-4.66-2.691c-.214-.124-.187-.339.06-.482l2.642-1.525a.928.928,0,0,1,.835-.034l4.66,2.69c.214.124.187.34-.06.482L116.1,145.8a.928.928,0,0,1-.835.034" transform="translate(-97.896 -137.463)" fill="#06033e"/>
                  <path id="Trazado_736708" data-name="Trazado 736708" d="M134.393,165.343l-2.666-1.539c-.214-.124-.188-.34.06-.482l2.641-1.525a.928.928,0,0,1,.835-.034l2.667,1.539c.214.124.187.34-.06.482l-2.642,1.525a.928.928,0,0,1-.835.034" transform="translate(-107.47 -146.826)" fill="#06033e"/>
                  <path id="Trazado_736709" data-name="Trazado 736709" d="M141.923,169.691l-2.666-1.539c-.214-.124-.188-.34.06-.482l2.641-1.525a.928.928,0,0,1,.835-.034l2.667,1.539c.214.124.187.34-.06.482l-2.642,1.525a.928.928,0,0,1-.835.034" transform="translate(-110.882 -148.797)" fill="#06033e"/>
                  <path id="Trazado_736710" data-name="Trazado 736710" d="M149.453,174.038l-2.666-1.539c-.214-.124-.188-.34.06-.482l2.641-1.525a.926.926,0,0,1,.835-.035L152.99,172c.214.124.187.34-.06.482L150.288,174a.928.928,0,0,1-.835.034" transform="translate(-114.295 -150.767)" fill="#06033e"/>
                  <path id="Trazado_736711" data-name="Trazado 736711" d="M156.984,178.386l-2.666-1.539c-.214-.124-.188-.34.06-.482l2.642-1.525a.926.926,0,0,1,.835-.035l2.667,1.539c.214.124.187.34-.06.482l-2.642,1.525a.928.928,0,0,1-.835.034" transform="translate(-117.709 -152.738)" fill="#06033e"/>
                  <path id="Trazado_736712" data-name="Trazado 736712" d="M164.514,182.734l-2.666-1.539c-.214-.124-.188-.34.06-.482l2.641-1.525a.928.928,0,0,1,.835-.034l2.667,1.539c.214.124.187.34-.06.482l-2.642,1.525a.928.928,0,0,1-.835.034" transform="translate(-121.121 -154.709)" fill="#06033e"/>
                  <path id="Trazado_736713" data-name="Trazado 736713" d="M172.044,187.081l-2.666-1.539c-.214-.124-.188-.34.06-.482l2.642-1.525a.928.928,0,0,1,.835-.035l2.667,1.539c.214.124.187.34-.06.482l-2.642,1.525a.928.928,0,0,1-.835.034" transform="translate(-124.534 -156.679)" fill="#06033e"/>
                  <path id="Trazado_736714" data-name="Trazado 736714" d="M179.574,191.429l-2.666-1.539c-.214-.124-.188-.34.06-.482l2.642-1.525a.928.928,0,0,1,.835-.035l2.667,1.539c.214.124.187.34-.06.482l-2.642,1.525a.928.928,0,0,1-.835.034" transform="translate(-127.947 -158.65)" fill="#06033e"/>
                  <path id="Trazado_736715" data-name="Trazado 736715" d="M187.105,195.776l-2.666-1.539c-.214-.124-.188-.34.06-.482l2.641-1.525a.928.928,0,0,1,.835-.034l2.667,1.539c.214.124.187.34-.06.482l-2.642,1.525a.928.928,0,0,1-.835.034" transform="translate(-131.36 -160.62)" fill="#06033e"/>
                  <path id="Trazado_736716" data-name="Trazado 736716" d="M194.635,200.124l-2.666-1.539c-.214-.124-.188-.34.06-.482l2.641-1.525a.928.928,0,0,1,.835-.034l2.667,1.539c.214.124.187.34-.06.482l-2.642,1.525a.928.928,0,0,1-.835.034" transform="translate(-134.773 -162.59)" fill="#06033e"/>
                  <path id="Trazado_736717" data-name="Trazado 736717" d="M205.41,206.345l-5.817-3.359c-.214-.124-.188-.339.06-.482l2.642-1.525a.928.928,0,0,1,.835-.034l5.818,3.358c.214.124.187.34-.06.482l-2.642,1.525a.928.928,0,0,1-.835.034" transform="translate(-138.229 -164.586)" fill="#06033e"/>
                  <path id="Trazado_736718" data-name="Trazado 736718" d="M220.823,198.315l-4.91-2.835c-.214-.124-.187-.339.06-.482l2.641-1.525a.929.929,0,0,1,.835-.034l4.91,2.834c.214.124.187.34-.06.482l-2.642,1.525a.928.928,0,0,1-.835.034" transform="translate(-145.626 -161.184)" fill="#06033e"/>
                  <path id="Trazado_736719" data-name="Trazado 736719" d="M147.58,164.493l-2.666-1.539c-.214-.124-.188-.34.06-.482l2.641-1.525a.929.929,0,0,1,.835-.034l2.666,1.539c.214.124.187.34-.06.482l-2.641,1.525a.929.929,0,0,1-.835.034" transform="translate(-113.446 -146.441)" fill="#06033e"/>
                  <path id="Trazado_736720" data-name="Trazado 736720" d="M139.862,160.037,137.2,158.5c-.214-.124-.187-.34.06-.482l2.641-1.525a.928.928,0,0,1,.835-.034l2.667,1.539c.214.124.187.34-.06.482L140.7,160a.929.929,0,0,1-.835.034" transform="translate(-109.948 -144.421)" fill="#06033e"/>
                  <path id="Trazado_736721" data-name="Trazado 736721" d="M132.145,155.581l-2.666-1.539c-.214-.124-.188-.34.06-.482l2.642-1.525a.928.928,0,0,1,.835-.034l2.667,1.539c.214.124.187.34-.06.482l-2.642,1.525a.928.928,0,0,1-.835.034" transform="translate(-106.451 -142.402)" fill="#06033e"/>
                  <path id="Trazado_736722" data-name="Trazado 736722" d="M124.427,151.125l-2.666-1.539c-.214-.124-.188-.34.06-.482l2.641-1.525a.928.928,0,0,1,.835-.034l2.667,1.539c.214.124.187.34-.06.482l-2.642,1.525a.928.928,0,0,1-.835.034" transform="translate(-102.953 -140.382)" fill="#06033e"/>
                  <path id="Trazado_736723" data-name="Trazado 736723" d="M155.11,168.84l-2.666-1.539c-.214-.124-.188-.34.06-.482l2.642-1.525a.928.928,0,0,1,.835-.034l2.667,1.539c.214.124.187.34-.06.482l-2.642,1.525a.928.928,0,0,1-.835.034" transform="translate(-116.859 -148.411)" fill="#06033e"/>
                  <path id="Trazado_736724" data-name="Trazado 736724" d="M162.641,173.188l-2.667-1.539c-.214-.124-.188-.34.06-.482l2.641-1.525a.929.929,0,0,1,.835-.034l2.666,1.539c.214.124.187.34-.06.482l-2.642,1.525a.927.927,0,0,1-.834.034" transform="translate(-120.272 -150.382)" fill="#06033e"/>
                  <path id="Trazado_736725" data-name="Trazado 736725" d="M170.171,177.535,167.505,176c-.214-.124-.188-.34.06-.482l2.642-1.525a.928.928,0,0,1,.835-.034l2.667,1.539c.214.124.187.34-.06.482l-2.642,1.525a.928.928,0,0,1-.835.034" transform="translate(-123.685 -152.352)" fill="#06033e"/>
                  <path id="Trazado_736726" data-name="Trazado 736726" d="M177.7,181.883l-2.666-1.539c-.214-.124-.188-.34.06-.482l2.641-1.525a.928.928,0,0,1,.835-.034l2.667,1.539c.214.124.187.34-.06.482l-2.641,1.525a.929.929,0,0,1-.835.034" transform="translate(-127.098 -154.323)" fill="#06033e"/>
                  <path id="Trazado_736727" data-name="Trazado 736727" d="M185.231,186.231l-2.666-1.539c-.214-.124-.188-.34.06-.482l2.641-1.525a.928.928,0,0,1,.835-.034l2.667,1.539c.214.124.187.34-.06.482l-2.642,1.525a.928.928,0,0,1-.835.034" transform="translate(-130.511 -156.294)" fill="#06033e"/>
                  <path id="Trazado_736728" data-name="Trazado 736728" d="M192.762,190.578l-2.667-1.539c-.214-.124-.186-.34.061-.482l2.641-1.525a.929.929,0,0,1,.835-.034l2.667,1.539c.213.124.186.34-.06.482l-2.643,1.525a.926.926,0,0,1-.834.034" transform="translate(-133.924 -158.264)" fill="#06033e"/>
                  <path id="Trazado_736729" data-name="Trazado 736729" d="M200.292,194.926l-2.666-1.539c-.214-.124-.188-.34.06-.482l2.641-1.525a.928.928,0,0,1,.835-.034l2.667,1.539c.214.124.187.34-.06.482l-2.642,1.525a.928.928,0,0,1-.835.034" transform="translate(-137.337 -160.234)" fill="#06033e"/>
                  <path id="Trazado_736730" data-name="Trazado 736730" d="M207.822,199.273l-2.666-1.539c-.214-.124-.188-.34.06-.482l2.642-1.525a.928.928,0,0,1,.835-.034l2.667,1.539c.214.124.187.34-.06.482l-2.642,1.525a.928.928,0,0,1-.835.034" transform="translate(-140.75 -162.205)" fill="#06033e"/>
                  <path id="Trazado_736731" data-name="Trazado 736731" d="M215.352,203.621l-2.666-1.539c-.214-.124-.188-.34.06-.482l2.641-1.525a.928.928,0,0,1,.835-.034l2.667,1.539c.214.124.187.34-.06.482l-2.642,1.525a.928.928,0,0,1-.835.034" transform="translate(-144.163 -164.175)" fill="#06033e"/>
                  <path id="Trazado_736732" data-name="Trazado 736732" d="M143.615,153.739l-2.666-1.539c-.214-.124-.188-.34.06-.482l2.641-1.525a.928.928,0,0,1,.835-.034l2.667,1.539c.214.124.187.34-.06.482L144.45,153.7a.928.928,0,0,1-.835.034" transform="translate(-111.649 -141.567)" fill="#06033e"/>
                  <path id="Trazado_736733" data-name="Trazado 736733" d="M136.122,149.413l-2.666-1.539c-.214-.124-.188-.34.06-.482l2.641-1.525a.928.928,0,0,1,.835-.034l2.667,1.539c.214.124.187.34-.06.482l-2.642,1.525a.928.928,0,0,1-.835.034" transform="translate(-108.253 -139.606)" fill="#06033e"/>
                  <path id="Trazado_736734" data-name="Trazado 736734" d="M128.629,145.087l-2.666-1.539c-.214-.124-.188-.34.06-.482l2.641-1.525a.928.928,0,0,1,.835-.034l2.667,1.539c.214.124.187.34-.06.482l-2.642,1.525a.928.928,0,0,1-.835.034" transform="translate(-104.857 -137.646)" fill="#06033e"/>
                  <path id="Trazado_736735" data-name="Trazado 736735" d="M121.136,140.761l-2.666-1.539c-.214-.124-.188-.34.06-.482l2.642-1.525a.926.926,0,0,1,.835-.035l2.666,1.539c.214.124.188.34-.06.482l-2.642,1.525a.928.928,0,0,1-.835.034" transform="translate(-101.461 -135.685)" fill="#06033e"/>
                  <path id="Trazado_736736" data-name="Trazado 736736" d="M128.841,137.159l-2.666-1.539c-.214-.124-.188-.34.06-.482l.874-.5a.928.928,0,0,1,.835-.035l2.666,1.54c.214.124.188.34-.06.482l-.874.5a.928.928,0,0,1-.835.034" transform="translate(-104.953 -134.515)" fill="#06033e"/>
                  <path id="Trazado_736737" data-name="Trazado 736737" d="M138.619,142.8l-2.666-1.539c-.214-.124-.188-.34.06-.482l.873-.5a.928.928,0,0,1,.835-.035l2.666,1.54c.214.124.188.34-.06.482l-.874.5a.928.928,0,0,1-.835.034" transform="translate(-109.385 -137.074)" fill="#06033e"/>
                  <path id="Trazado_736738" data-name="Trazado 736738" d="M146.081,147.112l-2.666-1.539c-.214-.124-.188-.34.06-.482l.873-.5a.928.928,0,0,1,.835-.035l2.666,1.54c.214.124.188.339-.06.482l-.873.5a.929.929,0,0,1-.835.034" transform="translate(-112.767 -139.026)" fill="#06033e"/>
                  <path id="Trazado_736739" data-name="Trazado 736739" d="M153.542,151.42l-2.666-1.539c-.214-.124-.188-.34.06-.482l.873-.5a.928.928,0,0,1,.835-.035l2.666,1.54c.214.124.188.34-.06.482l-.874.5a.928.928,0,0,1-.835.034" transform="translate(-116.149 -140.979)" fill="#06033e"/>
                  <path id="Trazado_736740" data-name="Trazado 736740" d="M161,155.728l-2.666-1.539c-.214-.124-.188-.34.06-.482l.873-.5a.928.928,0,0,1,.835-.035l2.666,1.54c.214.124.188.339-.06.482l-.874.5a.928.928,0,0,1-.835.034" transform="translate(-119.531 -142.931)" fill="#06033e"/>
                  <path id="Trazado_736741" data-name="Trazado 736741" d="M202.661,179.779,200,178.24c-.214-.124-.188-.34.06-.482l.873-.5a.928.928,0,0,1,.835-.035l2.666,1.54c.214.124.188.34-.06.482l-.874.5a.928.928,0,0,1-.835.034" transform="translate(-138.411 -153.832)" fill="#06033e"/>
                  <path id="Trazado_736742" data-name="Trazado 736742" d="M210.122,184.086l-2.666-1.539c-.214-.124-.188-.34.06-.482l.874-.5a.928.928,0,0,1,.835-.035l2.666,1.54c.214.124.188.34-.06.482l-.874.5a.928.928,0,0,1-.835.034" transform="translate(-141.793 -155.784)" fill="#06033e"/>
                  <path id="Trazado_736743" data-name="Trazado 736743" d="M217.584,188.394l-2.666-1.539c-.214-.124-.188-.34.06-.482l.873-.5a.928.928,0,0,1,.835-.035l2.666,1.54c.214.124.188.339-.06.482l-.874.5a.928.928,0,0,1-.835.034" transform="translate(-145.175 -157.737)" fill="#06033e"/>
                  <path id="Trazado_736744" data-name="Trazado 736744" d="M225.046,192.7l-2.666-1.539c-.214-.124-.188-.34.06-.482l.873-.5a.928.928,0,0,1,.835-.035l2.666,1.54c.214.124.188.34-.06.482l-.873.5a.929.929,0,0,1-.835.034" transform="translate(-148.557 -159.689)" fill="#06033e"/>
                  <path id="Trazado_736745" data-name="Trazado 736745" d="M151.145,158.087l-2.666-1.539c-.214-.124-.187-.34.06-.482l2.641-1.525a.928.928,0,0,1,.835-.034l2.667,1.539c.214.124.187.34-.06.482l-2.641,1.525a.929.929,0,0,1-.835.034" transform="translate(-115.062 -143.538)" fill="#06033e"/>
                  <path id="Trazado_736746" data-name="Trazado 736746" d="M158.675,162.434l-2.666-1.539c-.214-.124-.188-.34.06-.482l2.641-1.525a.928.928,0,0,1,.835-.034l2.667,1.539c.214.124.187.34-.06.482L159.51,162.4a.928.928,0,0,1-.835.034" transform="translate(-118.475 -145.508)" fill="#06033e"/>
                  <path id="Trazado_736747" data-name="Trazado 736747" d="M166.206,166.782l-2.666-1.539c-.214-.124-.188-.34.06-.482l2.642-1.525a.928.928,0,0,1,.835-.034l2.667,1.539c.214.124.187.34-.06.482l-2.642,1.525a.928.928,0,0,1-.835.034" transform="translate(-121.888 -147.479)" fill="#06033e"/>
                  <path id="Trazado_736748" data-name="Trazado 736748" d="M173.736,171.129l-2.666-1.539c-.214-.124-.188-.34.06-.482l2.641-1.525a.928.928,0,0,1,.835-.034l2.667,1.539c.214.124.187.34-.06.482l-2.642,1.525a.928.928,0,0,1-.835.034" transform="translate(-125.301 -149.449)" fill="#06033e"/>
                  <path id="Trazado_736749" data-name="Trazado 736749" d="M181.266,175.477l-2.666-1.539c-.214-.124-.188-.34.06-.482l2.642-1.525a.928.928,0,0,1,.835-.034l2.667,1.539c.214.124.187.34-.06.482l-2.642,1.525a.928.928,0,0,1-.835.034" transform="translate(-128.714 -151.419)" fill="#06033e"/>
                  <path id="Trazado_736750" data-name="Trazado 736750" d="M188.8,179.825l-2.666-1.539c-.214-.124-.188-.34.06-.482l2.642-1.525a.928.928,0,0,1,.835-.034l2.667,1.539c.214.124.187.34-.06.482l-2.642,1.525a.928.928,0,0,1-.835.034" transform="translate(-132.127 -153.39)" fill="#06033e"/>
                  <path id="Trazado_736751" data-name="Trazado 736751" d="M196.327,184.172l-2.666-1.539c-.214-.124-.188-.34.06-.482l2.642-1.525a.928.928,0,0,1,.835-.034l2.667,1.539c.214.124.187.34-.06.482l-2.642,1.525a.928.928,0,0,1-.835.034" transform="translate(-135.54 -155.36)" fill="#06033e"/>
                  <path id="Trazado_736752" data-name="Trazado 736752" d="M203.857,188.52l-2.666-1.539c-.214-.124-.188-.34.06-.482l2.641-1.525a.928.928,0,0,1,.835-.034l2.667,1.539c.214.124.187.34-.06.482l-2.641,1.525a.929.929,0,0,1-.835.034" transform="translate(-138.953 -157.331)" fill="#06033e"/>
                  <path id="Trazado_736753" data-name="Trazado 736753" d="M211.387,192.867l-2.666-1.539c-.214-.124-.188-.34.06-.482l2.641-1.525a.928.928,0,0,1,.835-.034l2.667,1.539c.214.124.187.34-.06.482l-2.642,1.525a.928.928,0,0,1-.835.034" transform="translate(-142.366 -159.301)" fill="#06033e"/>
                  <path id="Trazado_736754" data-name="Trazado 736754" d="M103.794,156.141l-7.852-4.533c-.214-.124-.187-.34.06-.482l2.641-1.525a.929.929,0,0,1,.835-.035l7.852,4.533c.214.124.187.34-.06.482l-2.642,1.525a.928.928,0,0,1-.835.034" transform="translate(-91.251 -141.299)" fill="#06033e"/>
                  <path id="Trazado_736755" data-name="Trazado 736755" d="M196.305,209.553l-7.852-4.533c-.214-.124-.187-.34.06-.482l2.641-1.525a.929.929,0,0,1,.835-.034l7.852,4.533c.214.124.187.34-.06.482l-2.642,1.525a.928.928,0,0,1-.835.034" transform="translate(-133.18 -165.507)" fill="#06033e"/>
                  <path id="Trazado_736756" data-name="Trazado 736756" d="M170.49,204.009l-2.666-1.539c-.214-.124-.187-.34.06-.482l3.147-1.817a.927.927,0,0,1,.835-.034l2.666,1.539c.214.124.187.34-.06.482l-3.147,1.817a.928.928,0,0,1-.835.034" transform="translate(-123.83 -164.219)" fill="#06033e"/>
                  <path id="Trazado_736757" data-name="Trazado 736757" d="M114.481,171.673l-4.264-2.462c-.214-.124-.188-.34.06-.482l3.147-1.817a.928.928,0,0,1,.835-.035l4.264,2.462c.214.124.187.34-.06.482l-3.147,1.817a.928.928,0,0,1-.835.034" transform="translate(-97.72 -149.145)" fill="#06033e"/>
                  <path id="Trazado_736758" data-name="Trazado 736758" d="M161.91,199.056l-4.264-2.462c-.214-.124-.188-.34.06-.482l3.147-1.817a.928.928,0,0,1,.835-.035l4.264,2.462c.214.124.187.34-.06.482l-3.147,1.817a.928.928,0,0,1-.835.034" transform="translate(-119.217 -161.556)" fill="#06033e"/>
                  <path id="Trazado_736759" data-name="Trazado 736759" d="M125.345,177.946l-4.264-2.462c-.214-.124-.188-.34.06-.482l3.147-1.817a.928.928,0,0,1,.835-.035l4.264,2.462c.214.124.187.34-.06.482l-3.147,1.817a.928.928,0,0,1-.835.034" transform="translate(-102.644 -151.988)" fill="#06033e"/>
                  <path id="Trazado_736760" data-name="Trazado 736760" d="M125.3,173.25l18.538,10.7a.254.254,0,0,1,0,.481l-3.209,1.852a.921.921,0,0,1-.833,0l-18.538-10.7Z" transform="translate(-102.788 -152.071)" fill="#06033e"/>
                  <path id="Trazado_736761" data-name="Trazado 736761" d="M192.093,215.115l2.97,1.715c.175.1.153.278-.049.4l-1.288.743a.761.761,0,0,1-.685.028l-2.969-1.715c-.176-.1-.154-.278.049-.4l1.287-.743a.761.761,0,0,1,.685-.028" transform="translate(-133.925 -171.015)" fill="#06033e"/>
                  <path id="Trazado_736762" data-name="Trazado 736762" d="M184.5,210.731l2.97,1.715c.176.1.153.278-.049.4l-1.288.743a.761.761,0,0,1-.685.028l-2.969-1.715c-.176-.1-.154-.278.049-.4l1.287-.743a.761.761,0,0,1,.685-.028" transform="translate(-130.484 -169.028)" fill="#06033e"/>
                  <path id="Trazado_736763" data-name="Trazado 736763" d="M176.97,206.384l2.97,1.715c.176.1.153.278-.049.4l-1.288.743a.761.761,0,0,1-.685.028l-2.969-1.715c-.176-.1-.154-.278.049-.4l1.287-.743a.761.761,0,0,1,.685-.028" transform="translate(-127.071 -167.058)" fill="#06033e"/>
                  <path id="Trazado_736764" data-name="Trazado 736764" d="M188.658,208.331l2.969,1.715c.176.1.154.278-.049.4l-1.288.743a.761.761,0,0,1-.685.028l-2.969-1.715c-.176-.1-.154-.278.049-.4l1.288-.743a.761.761,0,0,1,.685-.028" transform="translate(-132.368 -167.94)" fill="#06033e"/>
                </g>
              </g>
            </g>
            <g id="Grupo_1021325" data-name="Grupo 1021325" transform="translate(47.832 73.548)" opacity="0.4">
              <g id="Grupo_1021324" data-name="Grupo 1021324">
                <g id="Grupo_1021323" data-name="Grupo 1021323" clip-path="url(#clip-path-9)">
                  <path id="Trazado_736765" data-name="Trazado 736765" d="M90.292,157.707l-2.666-1.539c-.214-.124-.188-.34.06-.482l3.147-1.817a.929.929,0,0,1,.835-.035l2.666,1.54c.214.124.187.34-.06.482l-3.147,1.817a.928.928,0,0,1-.835.034" transform="translate(-87.481 -143.233)" fill="#06033e"/>
                  <path id="Trazado_736766" data-name="Trazado 736766" d="M97.822,162.055l-2.666-1.539c-.214-.124-.188-.34.06-.482l3.147-1.817a.926.926,0,0,1,.835-.034l2.667,1.539c.214.124.187.34-.06.482l-3.147,1.817a.928.928,0,0,1-.835.034" transform="translate(-90.894 -145.204)" fill="#06033e"/>
                  <path id="Trazado_736767" data-name="Trazado 736767" d="M105.352,166.4l-2.666-1.539c-.214-.124-.188-.34.06-.482l3.147-1.817a.928.928,0,0,1,.835-.034l2.667,1.539c.214.124.187.34-.06.482l-3.147,1.817a.928.928,0,0,1-.835.034" transform="translate(-94.307 -147.174)" fill="#06033e"/>
                  <path id="Trazado_736768" data-name="Trazado 736768" d="M115.767,163.054l-2.666-1.539c-.214-.124-.188-.34.06-.482l2.641-1.525a.928.928,0,0,1,.835-.035l2.667,1.539c.214.124.187.34-.06.482L116.6,163.02a.928.928,0,0,1-.835.034" transform="translate(-99.028 -145.789)" fill="#06033e"/>
                  <path id="Trazado_736769" data-name="Trazado 736769" d="M123.3,167.4l-2.666-1.539c-.214-.124-.188-.34.06-.482l2.642-1.525a.928.928,0,0,1,.835-.035l2.667,1.539c.214.124.187.34-.06.482l-2.642,1.525a.928.928,0,0,1-.835.034" transform="translate(-102.44 -147.759)" fill="#06033e"/>
                  <path id="Trazado_736770" data-name="Trazado 736770" d="M130.828,171.749l-2.666-1.539c-.214-.124-.188-.34.06-.482l2.642-1.525a.928.928,0,0,1,.835-.034l2.667,1.539c.214.124.187.34-.06.482l-2.642,1.525a.928.928,0,0,1-.835.034" transform="translate(-105.854 -149.73)" fill="#06033e"/>
                  <path id="Trazado_736771" data-name="Trazado 736771" d="M138.358,176.1l-2.666-1.539c-.214-.124-.188-.34.06-.482l2.642-1.525a.928.928,0,0,1,.835-.034l2.667,1.539c.214.124.187.34-.06.482l-2.642,1.525a.928.928,0,0,1-.835.034" transform="translate(-109.267 -151.7)" fill="#06033e"/>
                  <path id="Trazado_736772" data-name="Trazado 736772" d="M145.888,180.444l-2.666-1.539c-.214-.124-.188-.34.06-.482l2.642-1.525a.928.928,0,0,1,.835-.034l2.667,1.539c.214.124.187.34-.06.482l-2.642,1.525a.928.928,0,0,1-.835.034" transform="translate(-112.679 -153.671)" fill="#06033e"/>
                  <path id="Trazado_736773" data-name="Trazado 736773" d="M153.419,184.792l-2.667-1.539c-.214-.124-.188-.34.06-.482l2.641-1.525a.928.928,0,0,1,.835-.034l2.667,1.539c.214.124.187.34-.06.482l-2.641,1.525a.929.929,0,0,1-.835.034" transform="translate(-116.092 -155.641)" fill="#06033e"/>
                  <path id="Trazado_736774" data-name="Trazado 736774" d="M160.949,189.14l-2.666-1.539c-.214-.124-.188-.34.06-.482l2.641-1.525a.928.928,0,0,1,.835-.034l2.667,1.539c.214.124.187.34-.06.482l-2.642,1.525a.928.928,0,0,1-.835.034" transform="translate(-119.506 -157.612)" fill="#06033e"/>
                  <path id="Trazado_736775" data-name="Trazado 736775" d="M168.479,193.487l-2.666-1.539c-.214-.124-.187-.34.06-.482l2.641-1.525a.928.928,0,0,1,.835-.034l2.667,1.539c.214.124.187.34-.06.482l-2.641,1.525a.929.929,0,0,1-.835.034" transform="translate(-122.919 -159.582)" fill="#06033e"/>
                  <path id="Trazado_736776" data-name="Trazado 736776" d="M176.009,197.835l-2.666-1.539c-.214-.124-.188-.34.06-.482l2.641-1.525a.928.928,0,0,1,.835-.034l2.667,1.539c.214.124.187.34-.06.482l-2.642,1.525a.928.928,0,0,1-.835.034" transform="translate(-126.331 -161.553)" fill="#06033e"/>
                  <path id="Trazado_736777" data-name="Trazado 736777" d="M183.54,202.182l-2.666-1.539c-.214-.124-.188-.34.06-.482l2.642-1.525a.928.928,0,0,1,.835-.034l2.667,1.539c.214.124.187.34-.06.482l-2.642,1.525a.928.928,0,0,1-.835.034" transform="translate(-129.745 -163.523)" fill="#06033e"/>
                  <path id="Trazado_736778" data-name="Trazado 736778" d="M126.863,161l-2.667-1.539c-.214-.124-.186-.34.06-.482l2.641-1.525a.929.929,0,0,1,.835-.034l2.666,1.539c.214.124.187.34-.06.482l-2.641,1.525a.929.929,0,0,1-.835.034" transform="translate(-104.056 -144.856)" fill="#06033e"/>
                  <path id="Trazado_736779" data-name="Trazado 736779" d="M119.22,156.583l-2.666-1.539c-.214-.124-.188-.34.06-.482l2.641-1.525a.928.928,0,0,1,.835-.034l2.667,1.539c.214.124.187.34-.06.482l-2.642,1.525a.928.928,0,0,1-.835.034" transform="translate(-100.593 -142.856)" fill="#06033e"/>
                  <path id="Trazado_736780" data-name="Trazado 736780" d="M109.015,150.691l-5.742-3.315c-.214-.124-.187-.34.06-.482l2.641-1.525a.929.929,0,0,1,.835-.034l5.742,3.315c.214.124.187.34-.06.482l-2.642,1.525a.928.928,0,0,1-.835.034" transform="translate(-94.573 -139.381)" fill="#06033e"/>
                  <path id="Trazado_736781" data-name="Trazado 736781" d="M115.263,145.834l-4.66-2.691c-.214-.124-.187-.339.06-.482l2.642-1.525a.928.928,0,0,1,.835-.034l4.66,2.69c.214.124.187.34-.06.482L116.1,145.8a.928.928,0,0,1-.835.034" transform="translate(-97.896 -137.463)" fill="#06033e"/>
                  <path id="Trazado_736782" data-name="Trazado 736782" d="M134.393,165.343l-2.666-1.539c-.214-.124-.188-.34.06-.482l2.641-1.525a.928.928,0,0,1,.835-.034l2.667,1.539c.214.124.187.34-.06.482l-2.642,1.525a.928.928,0,0,1-.835.034" transform="translate(-107.47 -146.826)" fill="#06033e"/>
                  <path id="Trazado_736783" data-name="Trazado 736783" d="M141.923,169.691l-2.666-1.539c-.214-.124-.188-.34.06-.482l2.641-1.525a.928.928,0,0,1,.835-.034l2.667,1.539c.214.124.187.34-.06.482l-2.642,1.525a.928.928,0,0,1-.835.034" transform="translate(-110.882 -148.797)" fill="#06033e"/>
                  <path id="Trazado_736784" data-name="Trazado 736784" d="M149.453,174.038l-2.666-1.539c-.214-.124-.188-.34.06-.482l2.641-1.525a.926.926,0,0,1,.835-.035L152.99,172c.214.124.187.34-.06.482L150.288,174a.928.928,0,0,1-.835.034" transform="translate(-114.295 -150.767)" fill="#06033e"/>
                  <path id="Trazado_736785" data-name="Trazado 736785" d="M156.984,178.386l-2.666-1.539c-.214-.124-.188-.34.06-.482l2.642-1.525a.926.926,0,0,1,.835-.035l2.667,1.539c.214.124.187.34-.06.482l-2.642,1.525a.928.928,0,0,1-.835.034" transform="translate(-117.709 -152.738)" fill="#06033e"/>
                  <path id="Trazado_736786" data-name="Trazado 736786" d="M164.514,182.734l-2.666-1.539c-.214-.124-.188-.34.06-.482l2.641-1.525a.928.928,0,0,1,.835-.034l2.667,1.539c.214.124.187.34-.06.482l-2.642,1.525a.928.928,0,0,1-.835.034" transform="translate(-121.121 -154.709)" fill="#06033e"/>
                  <path id="Trazado_736787" data-name="Trazado 736787" d="M172.044,187.081l-2.666-1.539c-.214-.124-.188-.34.06-.482l2.642-1.525a.928.928,0,0,1,.835-.035l2.667,1.539c.214.124.187.34-.06.482l-2.642,1.525a.928.928,0,0,1-.835.034" transform="translate(-124.534 -156.679)" fill="#06033e"/>
                  <path id="Trazado_736788" data-name="Trazado 736788" d="M179.574,191.429l-2.666-1.539c-.214-.124-.188-.34.06-.482l2.642-1.525a.928.928,0,0,1,.835-.035l2.667,1.539c.214.124.187.34-.06.482l-2.642,1.525a.928.928,0,0,1-.835.034" transform="translate(-127.947 -158.65)" fill="#06033e"/>
                  <path id="Trazado_736789" data-name="Trazado 736789" d="M187.105,195.776l-2.666-1.539c-.214-.124-.188-.34.06-.482l2.641-1.525a.928.928,0,0,1,.835-.034l2.667,1.539c.214.124.187.34-.06.482l-2.642,1.525a.928.928,0,0,1-.835.034" transform="translate(-131.36 -160.62)" fill="#06033e"/>
                  <path id="Trazado_736790" data-name="Trazado 736790" d="M194.635,200.124l-2.666-1.539c-.214-.124-.188-.34.06-.482l2.641-1.525a.928.928,0,0,1,.835-.034l2.667,1.539c.214.124.187.34-.06.482l-2.642,1.525a.928.928,0,0,1-.835.034" transform="translate(-134.773 -162.59)" fill="#06033e"/>
                  <path id="Trazado_736791" data-name="Trazado 736791" d="M205.41,206.345l-5.817-3.359c-.214-.124-.188-.339.06-.482l2.642-1.525a.928.928,0,0,1,.835-.034l5.818,3.358c.214.124.187.34-.06.482l-2.642,1.525a.928.928,0,0,1-.835.034" transform="translate(-138.229 -164.586)" fill="#06033e"/>
                  <path id="Trazado_736792" data-name="Trazado 736792" d="M220.823,198.315l-4.91-2.835c-.214-.124-.187-.339.06-.482l2.641-1.525a.929.929,0,0,1,.835-.034l4.91,2.834c.214.124.187.34-.06.482l-2.642,1.525a.928.928,0,0,1-.835.034" transform="translate(-145.626 -161.184)" fill="#06033e"/>
                  <path id="Trazado_736793" data-name="Trazado 736793" d="M147.58,164.493l-2.666-1.539c-.214-.124-.188-.34.06-.482l2.641-1.525a.929.929,0,0,1,.835-.034l2.666,1.539c.214.124.187.34-.06.482l-2.641,1.525a.929.929,0,0,1-.835.034" transform="translate(-113.446 -146.441)" fill="#06033e"/>
                  <path id="Trazado_736794" data-name="Trazado 736794" d="M139.862,160.037,137.2,158.5c-.214-.124-.187-.34.06-.482l2.641-1.525a.928.928,0,0,1,.835-.034l2.667,1.539c.214.124.187.34-.06.482L140.7,160a.929.929,0,0,1-.835.034" transform="translate(-109.948 -144.421)" fill="#06033e"/>
                  <path id="Trazado_736795" data-name="Trazado 736795" d="M132.145,155.581l-2.666-1.539c-.214-.124-.188-.34.06-.482l2.642-1.525a.928.928,0,0,1,.835-.034l2.667,1.539c.214.124.187.34-.06.482l-2.642,1.525a.928.928,0,0,1-.835.034" transform="translate(-106.451 -142.402)" fill="#06033e"/>
                  <path id="Trazado_736796" data-name="Trazado 736796" d="M124.427,151.125l-2.666-1.539c-.214-.124-.188-.34.06-.482l2.641-1.525a.928.928,0,0,1,.835-.034l2.667,1.539c.214.124.187.34-.06.482l-2.642,1.525a.928.928,0,0,1-.835.034" transform="translate(-102.953 -140.382)" fill="#06033e"/>
                  <path id="Trazado_736797" data-name="Trazado 736797" d="M155.11,168.84l-2.666-1.539c-.214-.124-.188-.34.06-.482l2.642-1.525a.928.928,0,0,1,.835-.034l2.667,1.539c.214.124.187.34-.06.482l-2.642,1.525a.928.928,0,0,1-.835.034" transform="translate(-116.859 -148.411)" fill="#06033e"/>
                  <path id="Trazado_736798" data-name="Trazado 736798" d="M162.641,173.188l-2.667-1.539c-.214-.124-.188-.34.06-.482l2.641-1.525a.929.929,0,0,1,.835-.034l2.666,1.539c.214.124.187.34-.06.482l-2.642,1.525a.927.927,0,0,1-.834.034" transform="translate(-120.272 -150.382)" fill="#06033e"/>
                  <path id="Trazado_736799" data-name="Trazado 736799" d="M170.171,177.535,167.505,176c-.214-.124-.188-.34.06-.482l2.642-1.525a.928.928,0,0,1,.835-.034l2.667,1.539c.214.124.187.34-.06.482l-2.642,1.525a.928.928,0,0,1-.835.034" transform="translate(-123.685 -152.352)" fill="#06033e"/>
                  <path id="Trazado_736800" data-name="Trazado 736800" d="M177.7,181.883l-2.666-1.539c-.214-.124-.188-.34.06-.482l2.641-1.525a.928.928,0,0,1,.835-.034l2.667,1.539c.214.124.187.34-.06.482l-2.641,1.525a.929.929,0,0,1-.835.034" transform="translate(-127.098 -154.323)" fill="#06033e"/>
                  <path id="Trazado_736801" data-name="Trazado 736801" d="M185.231,186.231l-2.666-1.539c-.214-.124-.188-.34.06-.482l2.641-1.525a.928.928,0,0,1,.835-.034l2.667,1.539c.214.124.187.34-.06.482l-2.642,1.525a.928.928,0,0,1-.835.034" transform="translate(-130.511 -156.294)" fill="#06033e"/>
                  <path id="Trazado_736802" data-name="Trazado 736802" d="M192.762,190.578l-2.667-1.539c-.214-.124-.186-.34.061-.482l2.641-1.525a.929.929,0,0,1,.835-.034l2.667,1.539c.213.124.186.34-.06.482l-2.643,1.525a.926.926,0,0,1-.834.034" transform="translate(-133.924 -158.264)" fill="#06033e"/>
                  <path id="Trazado_736803" data-name="Trazado 736803" d="M200.292,194.926l-2.666-1.539c-.214-.124-.188-.34.06-.482l2.641-1.525a.928.928,0,0,1,.835-.034l2.667,1.539c.214.124.187.34-.06.482l-2.642,1.525a.928.928,0,0,1-.835.034" transform="translate(-137.337 -160.234)" fill="#06033e"/>
                  <path id="Trazado_736804" data-name="Trazado 736804" d="M207.822,199.273l-2.666-1.539c-.214-.124-.188-.34.06-.482l2.642-1.525a.928.928,0,0,1,.835-.034l2.667,1.539c.214.124.187.34-.06.482l-2.642,1.525a.928.928,0,0,1-.835.034" transform="translate(-140.75 -162.205)" fill="#06033e"/>
                  <path id="Trazado_736805" data-name="Trazado 736805" d="M215.352,203.621l-2.666-1.539c-.214-.124-.188-.34.06-.482l2.641-1.525a.928.928,0,0,1,.835-.034l2.667,1.539c.214.124.187.34-.06.482l-2.642,1.525a.928.928,0,0,1-.835.034" transform="translate(-144.163 -164.175)" fill="#06033e"/>
                  <path id="Trazado_736806" data-name="Trazado 736806" d="M143.615,153.739l-2.666-1.539c-.214-.124-.188-.34.06-.482l2.641-1.525a.928.928,0,0,1,.835-.034l2.667,1.539c.214.124.187.34-.06.482L144.45,153.7a.928.928,0,0,1-.835.034" transform="translate(-111.649 -141.567)" fill="#06033e"/>
                  <path id="Trazado_736807" data-name="Trazado 736807" d="M136.122,149.413l-2.666-1.539c-.214-.124-.188-.34.06-.482l2.641-1.525a.928.928,0,0,1,.835-.034l2.667,1.539c.214.124.187.34-.06.482l-2.642,1.525a.928.928,0,0,1-.835.034" transform="translate(-108.253 -139.606)" fill="#06033e"/>
                  <path id="Trazado_736808" data-name="Trazado 736808" d="M128.629,145.087l-2.666-1.539c-.214-.124-.188-.34.06-.482l2.641-1.525a.928.928,0,0,1,.835-.034l2.667,1.539c.214.124.187.34-.06.482l-2.642,1.525a.928.928,0,0,1-.835.034" transform="translate(-104.857 -137.646)" fill="#06033e"/>
                  <path id="Trazado_736809" data-name="Trazado 736809" d="M121.136,140.761l-2.666-1.539c-.214-.124-.188-.34.06-.482l2.642-1.525a.926.926,0,0,1,.835-.035l2.666,1.539c.214.124.188.34-.06.482l-2.642,1.525a.928.928,0,0,1-.835.034" transform="translate(-101.461 -135.685)" fill="#06033e"/>
                  <path id="Trazado_736810" data-name="Trazado 736810" d="M128.841,137.159l-2.666-1.539c-.214-.124-.188-.34.06-.482l.874-.5a.928.928,0,0,1,.835-.035l2.666,1.54c.214.124.188.34-.06.482l-.874.5a.928.928,0,0,1-.835.034" transform="translate(-104.953 -134.515)" fill="#06033e"/>
                  <path id="Trazado_736811" data-name="Trazado 736811" d="M138.619,142.8l-2.666-1.539c-.214-.124-.188-.34.06-.482l.873-.5a.928.928,0,0,1,.835-.035l2.666,1.54c.214.124.188.34-.06.482l-.874.5a.928.928,0,0,1-.835.034" transform="translate(-109.385 -137.074)" fill="#06033e"/>
                  <path id="Trazado_736812" data-name="Trazado 736812" d="M146.081,147.112l-2.666-1.539c-.214-.124-.188-.34.06-.482l.873-.5a.928.928,0,0,1,.835-.035l2.666,1.54c.214.124.188.339-.06.482l-.873.5a.929.929,0,0,1-.835.034" transform="translate(-112.767 -139.026)" fill="#06033e"/>
                  <path id="Trazado_736813" data-name="Trazado 736813" d="M153.542,151.42l-2.666-1.539c-.214-.124-.188-.34.06-.482l.873-.5a.928.928,0,0,1,.835-.035l2.666,1.54c.214.124.188.34-.06.482l-.874.5a.928.928,0,0,1-.835.034" transform="translate(-116.149 -140.979)" fill="#06033e"/>
                  <path id="Trazado_736814" data-name="Trazado 736814" d="M161,155.728l-2.666-1.539c-.214-.124-.188-.34.06-.482l.873-.5a.928.928,0,0,1,.835-.035l2.666,1.54c.214.124.188.339-.06.482l-.874.5a.928.928,0,0,1-.835.034" transform="translate(-119.531 -142.931)" fill="#06033e"/>
                  <path id="Trazado_736815" data-name="Trazado 736815" d="M202.661,179.779,200,178.24c-.214-.124-.188-.34.06-.482l.873-.5a.928.928,0,0,1,.835-.035l2.666,1.54c.214.124.188.34-.06.482l-.874.5a.928.928,0,0,1-.835.034" transform="translate(-138.411 -153.832)" fill="#06033e"/>
                  <path id="Trazado_736816" data-name="Trazado 736816" d="M210.122,184.086l-2.666-1.539c-.214-.124-.188-.34.06-.482l.874-.5a.928.928,0,0,1,.835-.035l2.666,1.54c.214.124.188.34-.06.482l-.874.5a.928.928,0,0,1-.835.034" transform="translate(-141.793 -155.784)" fill="#06033e"/>
                  <path id="Trazado_736817" data-name="Trazado 736817" d="M217.584,188.394l-2.666-1.539c-.214-.124-.188-.34.06-.482l.873-.5a.928.928,0,0,1,.835-.035l2.666,1.54c.214.124.188.339-.06.482l-.874.5a.928.928,0,0,1-.835.034" transform="translate(-145.175 -157.737)" fill="#06033e"/>
                  <path id="Trazado_736818" data-name="Trazado 736818" d="M225.046,192.7l-2.666-1.539c-.214-.124-.188-.34.06-.482l.873-.5a.928.928,0,0,1,.835-.035l2.666,1.54c.214.124.188.34-.06.482l-.873.5a.929.929,0,0,1-.835.034" transform="translate(-148.557 -159.689)" fill="#06033e"/>
                  <path id="Trazado_736819" data-name="Trazado 736819" d="M151.145,158.087l-2.666-1.539c-.214-.124-.187-.34.06-.482l2.641-1.525a.928.928,0,0,1,.835-.034l2.667,1.539c.214.124.187.34-.06.482l-2.641,1.525a.929.929,0,0,1-.835.034" transform="translate(-115.062 -143.538)" fill="#06033e"/>
                  <path id="Trazado_736820" data-name="Trazado 736820" d="M158.675,162.434l-2.666-1.539c-.214-.124-.188-.34.06-.482l2.641-1.525a.928.928,0,0,1,.835-.034l2.667,1.539c.214.124.187.34-.06.482L159.51,162.4a.928.928,0,0,1-.835.034" transform="translate(-118.475 -145.508)" fill="#06033e"/>
                  <path id="Trazado_736821" data-name="Trazado 736821" d="M166.206,166.782l-2.666-1.539c-.214-.124-.188-.34.06-.482l2.642-1.525a.928.928,0,0,1,.835-.034l2.667,1.539c.214.124.187.34-.06.482l-2.642,1.525a.928.928,0,0,1-.835.034" transform="translate(-121.888 -147.479)" fill="#06033e"/>
                  <path id="Trazado_736822" data-name="Trazado 736822" d="M173.736,171.129l-2.666-1.539c-.214-.124-.188-.34.06-.482l2.641-1.525a.928.928,0,0,1,.835-.034l2.667,1.539c.214.124.187.34-.06.482l-2.642,1.525a.928.928,0,0,1-.835.034" transform="translate(-125.301 -149.449)" fill="#06033e"/>
                  <path id="Trazado_736823" data-name="Trazado 736823" d="M181.266,175.477l-2.666-1.539c-.214-.124-.188-.34.06-.482l2.642-1.525a.928.928,0,0,1,.835-.034l2.667,1.539c.214.124.187.34-.06.482l-2.642,1.525a.928.928,0,0,1-.835.034" transform="translate(-128.714 -151.419)" fill="#06033e"/>
                  <path id="Trazado_736824" data-name="Trazado 736824" d="M188.8,179.825l-2.666-1.539c-.214-.124-.188-.34.06-.482l2.642-1.525a.928.928,0,0,1,.835-.034l2.667,1.539c.214.124.187.34-.06.482l-2.642,1.525a.928.928,0,0,1-.835.034" transform="translate(-132.127 -153.39)" fill="#06033e"/>
                  <path id="Trazado_736825" data-name="Trazado 736825" d="M196.327,184.172l-2.666-1.539c-.214-.124-.188-.34.06-.482l2.642-1.525a.928.928,0,0,1,.835-.034l2.667,1.539c.214.124.187.34-.06.482l-2.642,1.525a.928.928,0,0,1-.835.034" transform="translate(-135.54 -155.36)" fill="#06033e"/>
                  <path id="Trazado_736826" data-name="Trazado 736826" d="M203.857,188.52l-2.666-1.539c-.214-.124-.188-.34.06-.482l2.641-1.525a.928.928,0,0,1,.835-.034l2.667,1.539c.214.124.187.34-.06.482l-2.641,1.525a.929.929,0,0,1-.835.034" transform="translate(-138.953 -157.331)" fill="#06033e"/>
                  <path id="Trazado_736827" data-name="Trazado 736827" d="M211.387,192.867l-2.666-1.539c-.214-.124-.188-.34.06-.482l2.641-1.525a.928.928,0,0,1,.835-.034l2.667,1.539c.214.124.187.34-.06.482l-2.642,1.525a.928.928,0,0,1-.835.034" transform="translate(-142.366 -159.301)" fill="#06033e"/>
                  <path id="Trazado_736828" data-name="Trazado 736828" d="M103.794,156.141l-7.852-4.533c-.214-.124-.187-.34.06-.482l2.641-1.525a.929.929,0,0,1,.835-.035l7.852,4.533c.214.124.187.34-.06.482l-2.642,1.525a.928.928,0,0,1-.835.034" transform="translate(-91.251 -141.299)" fill="#06033e"/>
                  <path id="Trazado_736829" data-name="Trazado 736829" d="M196.305,209.553l-7.852-4.533c-.214-.124-.187-.34.06-.482l2.641-1.525a.929.929,0,0,1,.835-.034l7.852,4.533c.214.124.187.34-.06.482l-2.642,1.525a.928.928,0,0,1-.835.034" transform="translate(-133.18 -165.507)" fill="#06033e"/>
                  <path id="Trazado_736830" data-name="Trazado 736830" d="M170.49,204.009l-2.666-1.539c-.214-.124-.187-.34.06-.482l3.147-1.817a.927.927,0,0,1,.835-.034l2.666,1.539c.214.124.187.34-.06.482l-3.147,1.817a.928.928,0,0,1-.835.034" transform="translate(-123.83 -164.219)" fill="#06033e"/>
                  <path id="Trazado_736831" data-name="Trazado 736831" d="M114.481,171.673l-4.264-2.462c-.214-.124-.188-.34.06-.482l3.147-1.817a.928.928,0,0,1,.835-.035l4.264,2.462c.214.124.187.34-.06.482l-3.147,1.817a.928.928,0,0,1-.835.034" transform="translate(-97.72 -149.145)" fill="#06033e"/>
                  <path id="Trazado_736832" data-name="Trazado 736832" d="M161.91,199.056l-4.264-2.462c-.214-.124-.188-.34.06-.482l3.147-1.817a.928.928,0,0,1,.835-.035l4.264,2.462c.214.124.187.34-.06.482l-3.147,1.817a.928.928,0,0,1-.835.034" transform="translate(-119.217 -161.556)" fill="#06033e"/>
                  <path id="Trazado_736833" data-name="Trazado 736833" d="M125.345,177.946l-4.264-2.462c-.214-.124-.188-.34.06-.482l3.147-1.817a.928.928,0,0,1,.835-.035l4.264,2.462c.214.124.187.34-.06.482l-3.147,1.817a.928.928,0,0,1-.835.034" transform="translate(-102.644 -151.988)" fill="#06033e"/>
                  <path id="Trazado_736834" data-name="Trazado 736834" d="M125.3,173.25l18.538,10.7a.254.254,0,0,1,0,.481l-3.209,1.852a.921.921,0,0,1-.833,0l-18.538-10.7Z" transform="translate(-102.788 -152.071)" fill="#06033e"/>
                  <path id="Trazado_736835" data-name="Trazado 736835" d="M192.093,215.115l2.97,1.715c.175.1.153.278-.049.4l-1.288.743a.761.761,0,0,1-.685.028l-2.969-1.715c-.176-.1-.154-.278.049-.4l1.287-.743a.761.761,0,0,1,.685-.028" transform="translate(-133.925 -171.015)" fill="#06033e"/>
                  <path id="Trazado_736836" data-name="Trazado 736836" d="M184.5,210.731l2.97,1.715c.176.1.153.278-.049.4l-1.288.743a.761.761,0,0,1-.685.028l-2.969-1.715c-.176-.1-.154-.278.049-.4l1.287-.743a.761.761,0,0,1,.685-.028" transform="translate(-130.484 -169.028)" fill="#06033e"/>
                  <path id="Trazado_736837" data-name="Trazado 736837" d="M176.97,206.384l2.97,1.715c.176.1.153.278-.049.4l-1.288.743a.761.761,0,0,1-.685.028l-2.969-1.715c-.176-.1-.154-.278.049-.4l1.287-.743a.761.761,0,0,1,.685-.028" transform="translate(-127.071 -167.058)" fill="#06033e"/>
                  <path id="Trazado_736838" data-name="Trazado 736838" d="M188.658,208.331l2.969,1.715c.176.1.154.278-.049.4l-1.288.743a.761.761,0,0,1-.685.028l-2.969-1.715c-.176-.1-.154-.278.049-.4l1.288-.743a.761.761,0,0,1,.685-.028" transform="translate(-132.368 -167.94)" fill="#06033e"/>
                </g>
              </g>
            </g>
          </g>
        </g>
        <g id="Grupo_1021329" data-name="Grupo 1021329" transform="translate(67.457 0.469)">
          <g id="Grupo_1021328" data-name="Grupo 1021328" clip-path="url(#clip-path-11)">
            <rect id="Rectángulo_369882" data-name="Rectángulo 369882" width="101.807" height="109.375" transform="translate(-0.302 0)" fill="url(#radial-gradient-4)"/>
          </g>
        </g>
        <g id="Grupo_1021331" data-name="Grupo 1021331" transform="translate(69.147 2.553)">
          <g id="Grupo_1021330" data-name="Grupo 1021330" clip-path="url(#clip-path-12)">
            <rect id="Rectángulo_369883" data-name="Rectángulo 369883" width="98.43" height="105.238" transform="translate(-0.289 0)" fill="url(#linear-gradient-2)"/>
          </g>
        </g>
        <g id="Grupo_1021342" data-name="Grupo 1021342">
          <g id="Grupo_1021341" data-name="Grupo 1021341" clip-path="url(#clip-path)">
            <g id="Grupo_1021334" data-name="Grupo 1021334" transform="translate(69.147 2.553)" opacity="0.4">
              <g id="Grupo_1021333" data-name="Grupo 1021333">
                <g id="Grupo_1021332" data-name="Grupo 1021332" clip-path="url(#clip-path-14)">
                  <path id="Trazado_736841" data-name="Trazado 736841" d="M204.273,109.223,127.978,65.138a3.335,3.335,0,0,1-1.38-3.72L143.6,6.205a1.932,1.932,0,0,1,2.907-1.244l76.294,44.085a3.334,3.334,0,0,1,1.38,3.719l-17.007,55.214a1.932,1.932,0,0,1-2.907,1.244" transform="translate(-126.466 -4.669)" fill="#06033e"/>
                </g>
              </g>
            </g>
            <g id="Grupo_1021337" data-name="Grupo 1021337" transform="translate(69.147 2.553)" opacity="0.4">
              <g id="Grupo_1021336" data-name="Grupo 1021336">
                <g id="Grupo_1021335" data-name="Grupo 1021335" clip-path="url(#clip-path-14)">
                  <path id="Trazado_736842" data-name="Trazado 736842" d="M204.273,109.223,127.978,65.138a3.335,3.335,0,0,1-1.38-3.72L143.6,6.205a1.932,1.932,0,0,1,2.907-1.244l76.294,44.085a3.334,3.334,0,0,1,1.38,3.719l-17.007,55.214a1.932,1.932,0,0,1-2.907,1.244" transform="translate(-126.466 -4.669)" fill="#06033e"/>
                </g>
              </g>
            </g>
            <g id="Grupo_1021340" data-name="Grupo 1021340" transform="translate(90.17 18.887)" opacity="0.5">
              <g id="Grupo_1021339" data-name="Grupo 1021339">
                <g id="Grupo_1021338" data-name="Grupo 1021338" clip-path="url(#clip-path-16)">
                  <path id="Trazado_736843" data-name="Trazado 736843" d="M217.6,105.891,165.954,76.072a2.288,2.288,0,0,1-.946-2.552L176.687,35.6a1.326,1.326,0,0,1,1.995-.854l51.647,29.819a2.287,2.287,0,0,1,.946,2.552L219.6,105.037a1.327,1.327,0,0,1-1.995.854" transform="translate(-164.916 -34.544)" fill="#06033e"/>
                </g>
              </g>
            </g>
          </g>
        </g>
        <g id="Grupo_1021344" data-name="Grupo 1021344" transform="translate(83.192 19.803)">
          <g id="Grupo_1021343" data-name="Grupo 1021343" clip-path="url(#clip-path-17)">
            <rect id="Rectángulo_369888" data-name="Rectángulo 369888" width="66.847" height="71.816" transform="translate(-0.199 0)" fill="url(#radial-gradient-5)"/>
          </g>
        </g>
        <g id="Grupo_1021352" data-name="Grupo 1021352">
          <g id="Grupo_1021351" data-name="Grupo 1021351" clip-path="url(#clip-path)">
            <g id="Grupo_1021347" data-name="Grupo 1021347" transform="translate(83.192 19.803)" opacity="0.5">
              <g id="Grupo_1021346" data-name="Grupo 1021346">
                <g id="Grupo_1021345" data-name="Grupo 1021345" clip-path="url(#clip-path-16)">
                  <path id="Trazado_736845" data-name="Trazado 736845" d="M204.838,107.565,153.191,77.746a2.288,2.288,0,0,1-.946-2.552l11.679-37.922a1.326,1.326,0,0,1,1.995-.854l51.647,29.819a2.287,2.287,0,0,1,.946,2.552l-11.679,37.922a1.326,1.326,0,0,1-1.995.854" transform="translate(-152.153 -36.218)" fill="#06033e"/>
                </g>
              </g>
            </g>
            <path id="Trazado_736846" data-name="Trazado 736846" d="M227.772,66.237,176.124,36.418a1.287,1.287,0,0,0-1.453.05,1.392,1.392,0,0,1,.746.191l51.647,29.819a2.287,2.287,0,0,1,.946,2.552l-11.679,37.922a1.563,1.563,0,0,1-.541.8,1.368,1.368,0,0,0,1.249-1.045l11.679-37.922a2.287,2.287,0,0,0-.946-2.552" transform="translate(-79.167 -16.415)" fill="#fff"/>
            <g id="Grupo_1021350" data-name="Grupo 1021350" transform="translate(47.281 100.1)" opacity="0.4">
              <g id="Grupo_1021349" data-name="Grupo 1021349">
                <g id="Grupo_1021348" data-name="Grupo 1021348" clip-path="url(#clip-path-20)">
                  <path id="Trazado_736847" data-name="Trazado 736847" d="M109.931,205.093a3.886,3.886,0,0,1-1.914-.448h0L87.325,192.7a1.5,1.5,0,0,1-.85-1.275,1.955,1.955,0,0,1,1.141-1.581l10.651-6.15a4.768,4.768,0,0,1,4.351-.168l20.692,11.946a1.5,1.5,0,0,1,.851,1.276,1.957,1.957,0,0,1-1.141,1.581l-10.652,6.15a4.99,4.99,0,0,1-2.436.616m-9.217-21.412a4.437,4.437,0,0,0-2.148.529L87.915,190.36c-.536.309-.843.7-.843,1.064a.945.945,0,0,0,.552.757l20.692,11.947a4.245,4.245,0,0,0,3.752-.168l10.652-6.149c.536-.309.843-.7.843-1.064a.943.943,0,0,0-.552-.757l-20.692-11.947a3.289,3.289,0,0,0-1.605-.361" transform="translate(-86.475 -183.077)" fill="#06033e"/>
                </g>
              </g>
            </g>
            <path id="Trazado_736848" data-name="Trazado 736848" d="M197.37,70.374l-3.193-1.844a.832.832,0,0,1-.355-.918.473.473,0,0,1,.718-.3l3.193,1.843a.833.833,0,0,1,.355.919.473.473,0,0,1-.718.3" transform="translate(-87.833 -30.475)" fill="#fff"/>
            <path id="Trazado_736849" data-name="Trazado 736849" d="M210.025,77.679l-4.708-2.719a.832.832,0,0,1-.355-.918.473.473,0,0,1,.718-.3l4.708,2.718a.833.833,0,0,1,.355.919.473.473,0,0,1-.718.3" transform="translate(-92.883 -33.39)" fill="#fff"/>
            <path id="Trazado_736850" data-name="Trazado 736850" d="M185.593,96.372,182.4,94.529a.833.833,0,0,1-.355-.918.473.473,0,0,1,.718-.3l3.193,1.843a.833.833,0,0,1,.355.918.473.473,0,0,1-.718.3" transform="translate(-82.496 -42.259)" fill="#fff"/>
            <path id="Trazado_736851" data-name="Trazado 736851" d="M196.737,102.806l-4.708-2.718a.833.833,0,0,1-.355-.919.473.473,0,0,1,.718-.3l4.708,2.718a.833.833,0,0,1,.355.919.473.473,0,0,1-.718.3" transform="translate(-86.86 -44.778)" fill="#fff"/>
            <path id="Trazado_736852" data-name="Trazado 736852" d="M180.871,66.313l-1.995-1.151a.833.833,0,0,1-.355-.919.473.473,0,0,1,.718-.3l1.995,1.151a.833.833,0,0,1,.355.919.473.473,0,0,1-.718.3" transform="translate(-80.899 -28.948)" fill="#fff"/>
            <path id="Trazado_736853" data-name="Trazado 736853" d="M188.449,76.155l-6.094-3.518a.833.833,0,0,1-.355-.919.473.473,0,0,1,.718-.3l6.094,3.518a.833.833,0,0,1,.355.919.473.473,0,0,1-.718.3" transform="translate(-82.475 -32.336)" fill="#fff"/>
            <path id="Trazado_736854" data-name="Trazado 736854" d="M181.567,83.115l-1.995-1.151a.833.833,0,0,1-.355-.919.473.473,0,0,1,.718-.3L181.93,81.9a.833.833,0,0,1,.355.919.473.473,0,0,1-.718.3" transform="translate(-81.214 -36.563)" fill="#fff"/>
            <path id="Trazado_736855" data-name="Trazado 736855" d="M197.568,114.22l-5.328-3.076a.832.832,0,0,1-.355-.918.473.473,0,0,1,.718-.3L197.931,113a.833.833,0,0,1,.355.919.473.473,0,0,1-.718.3" transform="translate(-86.956 -49.789)" fill="#fff"/>
            <path id="Trazado_736856" data-name="Trazado 736856" d="M178.07,92.029l-1.281-.739a.834.834,0,0,1-.355-.918.473.473,0,0,1,.718-.3l1.281.739a.833.833,0,0,1,.355.919.473.473,0,0,1-.718.3" transform="translate(-79.953 -40.79)" fill="#fff"/>
            <path id="Trazado_736857" data-name="Trazado 736857" d="M175.6,101.535l-1.59-.918a.832.832,0,0,1-.355-.918.473.473,0,0,1,.718-.3l1.59.918a.833.833,0,0,1,.355.919.473.473,0,0,1-.718.3" transform="translate(-78.692 -45.018)" fill="#fff"/>
            <path id="Trazado_736858" data-name="Trazado 736858" d="M184.754,106.821l-4.192-2.42a.833.833,0,0,1-.355-.919.473.473,0,0,1,.718-.3l4.192,2.42a.833.833,0,0,1,.355.919.473.473,0,0,1-.718.3" transform="translate(-81.663 -46.733)" fill="#fff"/>
            <path id="Trazado_736859" data-name="Trazado 736859" d="M175.63,107.02l-3.014-1.74a.833.833,0,0,1-.355-.918.473.473,0,0,1,.718-.3l3.014,1.74a.833.833,0,0,1,.355.919.473.473,0,0,1-.718.3" transform="translate(-78.061 -47.131)" fill="#fff"/>
            <path id="Trazado_736860" data-name="Trazado 736860" d="M208.739,120.693l-1.936-1.118a.832.832,0,0,1-.355-.918.473.473,0,0,1,.718-.3l1.936,1.118a.833.833,0,0,1,.355.918.473.473,0,0,1-.718.3" transform="translate(-93.556 -53.61)" fill="#fff"/>
            <path id="Trazado_736861" data-name="Trazado 736861" d="M192.375,89.355l-5.328-3.076a.833.833,0,0,1-.355-.918.473.473,0,0,1,.718-.3l5.328,3.076a.833.833,0,0,1,.355.919.473.473,0,0,1-.718.3" transform="translate(-84.602 -38.52)" fill="#fff"/>
            <path id="Trazado_736862" data-name="Trazado 736862" d="M190.249,82.661,180.964,77.3a.832.832,0,0,1-.355-.918.473.473,0,0,1,.718-.3l9.285,5.361a.833.833,0,0,1,.355.918.473.473,0,0,1-.718.3" transform="translate(-81.845 -34.45)" fill="#e8975b"/>
            <path id="Trazado_736863" data-name="Trazado 736863" d="M183.509,89.7l-5.328-3.076a.832.832,0,0,1-.355-.918.473.473,0,0,1,.718-.3l5.328,3.076a.833.833,0,0,1,.355.919.473.473,0,0,1-.718.3" transform="translate(-80.584 -38.677)" fill="#e8975b"/>
            <path id="Trazado_736864" data-name="Trazado 736864" d="M202.576,95.245l-1.936-1.118a.832.832,0,0,1-.355-.918.473.473,0,0,1,.718-.3l1.936,1.118a.833.833,0,0,1,.355.919.473.473,0,0,1-.718.3" transform="translate(-90.763 -42.077)" fill="#e8975b"/>
            <path id="Trazado_736865" data-name="Trazado 736865" d="M230.69,89.61l-11.463-6.618a.833.833,0,0,1-.355-.918.473.473,0,0,1,.718-.3l11.463,6.618a.833.833,0,0,1,.355.919.473.473,0,0,1-.718.3" transform="translate(-99.187 -37.03)" fill="#e8975b"/>
            <path id="Trazado_736866" data-name="Trazado 736866" d="M181.8,99.651l-6.4-3.7a.833.833,0,0,1-.355-.919.473.473,0,0,1,.718-.3l6.4,3.7a.833.833,0,0,1,.355.919.473.473,0,0,1-.718.3" transform="translate(-79.322 -42.904)" fill="#f8359e"/>
            <path id="Trazado_736867" data-name="Trazado 736867" d="M184.975,63.216,180.267,60.5a.832.832,0,0,1-.355-.918.473.473,0,0,1,.718-.3L185.338,62a.833.833,0,0,1,.355.919.473.473,0,0,1-.718.3" transform="translate(-81.529 -26.835)" fill="#f8359e"/>
            <path id="Trazado_736868" data-name="Trazado 736868" d="M171.808,110.28l-5.453-3.148a.833.833,0,0,1-.355-.918.473.473,0,0,1,.718-.3l5.453,3.148a.833.833,0,0,1,.355.919.473.473,0,0,1-.718.3" transform="translate(-75.224 -47.971)" fill="#e8975b"/>
            <path id="Trazado_736869" data-name="Trazado 736869" d="M240.7,83.486l-2.334-1.348a.608.608,0,0,1-.26-.671.346.346,0,0,1,.525-.218l2.334,1.347a.609.609,0,0,1,.26.671.346.346,0,0,1-.525.218" transform="translate(-107.907 -36.8)" fill="#fff"/>
            <path id="Trazado_736870" data-name="Trazado 736870" d="M248.839,88.186,246.5,86.838a.608.608,0,0,1-.259-.671.346.346,0,0,1,.525-.218L249.1,87.3a.609.609,0,0,1,.26.671.345.345,0,0,1-.524.219" transform="translate(-111.597 -38.93)" fill="#fff"/>
            <path id="Trazado_736871" data-name="Trazado 736871" d="M256.981,92.887l-2.334-1.348a.609.609,0,0,1-.26-.671.346.346,0,0,1,.525-.218L257.246,92a.609.609,0,0,1,.26.671.346.346,0,0,1-.525.219" transform="translate(-115.288 -41.061)" fill="#fff"/>
            <path id="Trazado_736872" data-name="Trazado 736872" d="M262.86,96.283l-.07-.042a.609.609,0,0,1-.26-.671.345.345,0,0,1,.525-.219l.07.042a.609.609,0,0,1,.26.671.346.346,0,0,1-.525.218" transform="translate(-118.978 -43.192)" fill="#f8359e"/>
          </g>
        </g>
      </g>
    </g>
  </g>
</svg>
